<svg width="101" height="101" viewBox="0 0 101 101" fill="none" xmlns="http://www.w3.org/2000/svg">
<path d="M89.9623 74.4236C86.8335 71.2924 83.1777 68.7367 79.1623 66.8738C84.8248 62.2864 88.4373 55.2866 88.4373 47.4369C88.4373 33.5873 76.8873 22.2251 63.0374 22.4376C49.4 22.6501 38.4126 33.7623 38.4126 47.4369C38.4126 55.2866 42.0376 62.2864 47.6875 66.8738C43.6714 68.7354 40.0153 71.2912 36.8876 74.4236C30.0626 81.2609 26.1877 90.2856 25.9377 99.9103C25.9343 100.044 25.9577 100.176 26.0065 100.301C26.0552 100.425 26.1284 100.538 26.2216 100.634C26.3148 100.729 26.4261 100.805 26.5491 100.857C26.6721 100.909 26.8042 100.935 26.9377 100.935H33.9376C34.4751 100.935 34.9251 100.51 34.9376 99.9728C35.1751 92.723 38.1126 85.9357 43.2751 80.7859C45.9168 78.1302 49.059 76.0248 52.5199 74.5915C55.9807 73.1583 59.6915 72.4257 63.4374 72.4361C71.0499 72.4361 78.2123 75.3985 83.5998 80.7859C88.7498 85.9357 91.6872 92.723 91.9372 99.9728C91.9497 100.51 92.3997 100.935 92.9372 100.935H99.9372C100.071 100.935 100.203 100.909 100.326 100.857C100.449 100.805 100.56 100.729 100.653 100.634C100.746 100.538 100.82 100.425 100.868 100.301C100.917 100.176 100.941 100.044 100.937 99.9103C100.687 90.2856 96.8122 81.2609 89.9623 74.4236ZM63.4374 63.4364C59.1624 63.4364 55.1375 61.774 52.125 58.749C50.6132 57.2492 49.419 55.4601 48.6136 53.4887C47.8083 51.5172 47.4083 49.4038 47.4375 47.2744C47.475 43.1745 49.1125 39.2121 51.975 36.2747C54.975 33.1998 58.9875 31.4873 63.2749 31.4373C67.5124 31.3998 71.6249 33.0498 74.6499 36.0122C77.7498 39.0496 79.4498 43.112 79.4498 47.4369C79.4498 51.7118 77.7873 55.7241 74.7623 58.749C73.2783 60.2402 71.5132 61.4223 69.5693 62.2268C67.6254 63.0314 65.5413 63.4425 63.4374 63.4364ZM32.1251 50.7368C32.0126 49.6493 31.9501 48.5493 31.9501 47.4369C31.9501 45.4494 32.1376 43.512 32.4876 41.6245C32.5751 41.1746 32.3376 40.7121 31.9251 40.5246C30.2251 39.7621 28.6626 38.7121 27.3126 37.3872C25.7219 35.8448 24.4701 33.9878 23.6372 31.9346C22.8043 29.8814 22.4086 27.6772 22.4752 25.4625C22.5877 21.4501 24.2002 17.6377 27.0126 14.7628C30.1001 11.6004 34.2501 9.87547 38.6626 9.92547C42.6501 9.96297 46.5 11.5004 49.4125 14.2253C50.4 15.1503 51.25 16.1753 51.9625 17.2753C52.2125 17.6627 52.7 17.8252 53.125 17.6752C55.325 16.9128 57.65 16.3753 60.0374 16.1253C60.7374 16.0503 61.1374 15.3003 60.8249 14.6753C56.7625 6.63807 48.4625 1.08823 38.8626 0.938236C25.0002 0.725742 13.4502 12.0879 13.4502 25.925C13.4502 33.7748 17.0627 40.7746 22.7252 45.3619C18.7502 47.1994 15.0877 49.7368 11.9127 52.9117C5.06279 59.749 1.18781 68.7737 0.937813 78.411C0.934476 78.5444 0.957876 78.6771 1.00664 78.8013C1.05539 78.9255 1.12852 79.0387 1.22172 79.1343C1.31491 79.2298 1.42628 79.3057 1.54926 79.3575C1.67225 79.4093 1.80435 79.436 1.93781 79.4359H8.95026C9.48776 79.4359 9.93776 79.0109 9.95026 78.4735C10.1878 71.2237 13.1252 64.4364 18.2877 59.2865C21.9627 55.6116 26.4627 53.0617 31.3751 51.8242C31.8626 51.6992 32.1876 51.2368 32.1251 50.7368Z" fill="#0FBA0A"/>
</svg>
