<svg width="100" height="100" viewBox="0 0 100 100" fill="none" xmlns="http://www.w3.org/2000/svg">
<path d="M71.4286 53.6585C86.1429 39.9512 100 27.122 100 16.0976C100 7.07317 93.0952 0 84.2857 0C79.3333 0 74.5238 2.39024 71.4286 6.09756C68.2857 2.39024 63.5238 0 58.5714 0C49.7619 0 42.8571 7.07317 42.8571 16.0976C42.8571 27.122 56.7143 39.9512 71.4286 53.6585ZM58.5714 9.7561C60.6667 9.7561 62.8095 10.7805 64.1905 12.439L71.4286 21.1707L78.6667 12.439C80.0476 10.7805 82.1905 9.7561 84.2857 9.7561C87.8095 9.7561 90.4762 12.4878 90.4762 16.0976C90.4762 21.561 80.7619 31.561 71.4286 40.439C62.0952 31.561 52.381 21.5122 52.381 16.0976C52.381 12.4878 55.0476 9.7561 58.5714 9.7561ZM85.7143 68.2927H76.1905C76.1905 62.439 72.619 57.1707 67.2857 55.122L37.9524 43.9024H0V97.561H28.5714V90.5366L61.9048 100L100 87.8049V82.9268C100 74.8293 93.619 68.2927 85.7143 68.2927ZM9.52381 87.8049V53.6585H19.0476V87.8049H9.52381ZM61.7619 89.8049L28.5714 80.3902V53.6585H36.2381L63.9524 64.2439C65.5714 64.8781 66.6667 66.4878 66.6667 68.2927C66.6667 68.2927 57.1905 68.0488 55.7143 67.561L44.381 63.7073L41.381 72.9756L52.7143 76.8293C55.1429 77.6585 57.6667 78.0976 60.2381 78.0976H85.7143C87.5714 78.0976 89.2381 79.2195 90 80.8293L61.7619 89.8049Z" fill="#0FBA0A"/>
</svg>
