<svg width="112" height="76" viewBox="0 0 112 76" fill="none" xmlns="http://www.w3.org/2000/svg">
<path d="M99.4426 58.9306C107.901 59.0278 110.991 52.1943 111.146 47.4926L111.378 27.1926C111.441 18.7001 104.641 15.6442 99.9395 15.4887L88.402 15.3899L79.7394 6.52638C73.3846 0.0241815 66.2835 -0.395801 60.4752 1.53388L30.4312 1.18862L16.7431 14.5664L11.973 14.4778C3.48045 14.414 0.424949 21.2141 0.269652 25.9158L0.0374346 46.2158C-0.00436575 49.8698 1.25111 52.5236 3.09065 54.4058C5.46534 56.8355 8.83706 57.8894 11.4761 57.9197L29.7803 58.0962L41.7875 70.382C47.4733 76.1997 53.9771 75.5977 58.5728 73.1804C63.3788 76.0442 68.3955 75.2897 72.1061 73.3359C78.6591 77.3026 85.6294 74.3711 89.1541 70.9263L99.4202 60.893L97.4468 58.8739L99.4426 58.9306ZM82.4648 64.0819C80.9249 65.5869 78.4073 66.7761 75.6982 64.0041L72.3535 60.5819L68.9315 63.9264C67.3916 65.4314 64.874 66.6206 62.1648 63.8486L58.8202 60.4264L55.3982 63.7709C53.8583 65.2759 51.3407 66.4651 48.6315 63.6931L33.8817 48.6011L11.6871 48.3461C9.65785 48.2551 9.63757 47.0705 9.64609 46.3262L9.84331 26.1273C9.9342 24.0981 11.1187 24.0779 11.8631 24.0864L20.6263 24.1533L34.3144 10.7755L47.8477 10.931L42.4067 16.2487C38.266 20.2955 34.8163 29.0198 42.1745 36.5487C49.5327 44.0775 58.3338 40.8287 62.4745 36.782L85.8868 60.7374L82.4648 64.0819ZM99.5525 49.322L88.015 49.2232L62.6293 23.2486L55.7852 29.9375C54.2453 31.4425 51.7277 32.6318 49.0185 29.8598C46.3094 27.0878 47.556 24.5981 49.096 23.0931L59.3621 13.0598C60.9362 11.5213 66.7747 6.95264 72.8954 13.2153L84.3005 24.885L99.7285 25.0623C101.758 25.1533 101.778 26.3379 101.77 27.0822L101.572 47.2811C101.481 49.3103 100.297 49.3305 99.5525 49.322Z" fill="#0FBA0A"/>
</svg>
